<svg width="16" height="16" viewBox="0 0 16 16" fill="none" xmlns="http://www.w3.org/2000/svg">
<path d="M2 13V5C2 4.44772 2.44772 4 3 4H13C13.5523 4 14 4.44772 14 5V13C14 13.5523 13.5523 14 13 14H3C2.44772 14 2 13.5523 2 13Z" stroke="black"/>
<path d="M5 3V5" stroke="black" stroke-linecap="round"/>
<path d="M8 3V5" stroke="black" stroke-linecap="round"/>
<path d="M11 3V5" stroke="black" stroke-linecap="round"/>
<path d="M2 7H14" stroke="black"/>
<rect x="4" y="8" width="2" height="2" fill="black"/>
<rect x="4" y="11" width="2" height="2" fill="black"/>
<rect x="7" y="8" width="2" height="2" fill="black"/>
<rect x="7" y="11" width="2" height="2" fill="black"/>
<rect x="10" y="8" width="2" height="2" fill="black"/>
<rect x="10" y="11" width="2" height="2" fill="black"/>
</svg>
